# File created by Blade
# Date/Time:  Wed Jan 28 16:58:26 2015
#---------------------------------------------------------
:version 1.10
:name HOM
:units
  mass 1.0
  length 1.000000
  angle deg
:documentation
     Acclaim Skeleton File
:root
   axis xyz
   order TX TY TZ RX RY RZ
   position 0.000000 0.000000 0.000000
   orientation 0 0 0
:bonedata
   begin
      id 1
      name Spine_dum
      direction 0.000000 1.000000 0.000000
      length 9.621153
      axis 0.0 0.0 0.0 xyz
   end
   begin
      id 2
      name LeftUpLeg_dum
      direction 1.000000 0.000000 0.000000
      length 2.700595
      axis 0.0 0.0 0.0 xyz
   end
   begin
      id 3
      name RightUpLeg_dum
      direction -1.000000 0.000000 0.000000
      length 2.700595
      axis 0.0 0.0 0.0 xyz
   end
   begin
      id 4
      name Spine
      direction 0.000000 1.000000 0.000000
      length 0.000000
      axis 0.0 0.0 0.0 xyz
      dof rx ry rz
   end
   begin
      id 5
      name Spine_dum1
      direction 0.000000 1.000000 0.000000
      length 12.771951
      axis 0.0 0.0 0.0 xyz
   end
   begin
      id 6
      name Spine_dum2
      direction 0.000000 1.000000 0.000000
      length 7.400569
      axis 0.0 0.0 0.0 xyz
   end
   begin
      id 7
      name Spine_dum3
      direction 0.000000 1.000000 0.000000
      length 7.400569
      axis 0.0 0.0 0.0 xyz
   end
   begin
      id 8
      name Head
      direction 0.000000 1.000000 0.000000
      length 4.527550
      axis 0.0 0.0 0.0 xyz
      dof rx ry rz
   end
   begin
      id 9
      name LeftShoulder
      direction 1.000000 0.000000 0.000000
      length 8.349299
      axis 0.0 0.0 -90.0 xyz
      dof rx ry rz
   end
   begin
      id 10
      name LeftArm
      direction 1.000000 0.000000 0.000000
      length 11.334839
      axis 0.0 0.0 -90.0 xyz
      dof rx ry rz
   end
   begin
      id 11
      name LeftForeArm
      direction 1.000000 0.000000 0.000000
      length 9.694182
      axis 0.0 0.0 -90.0 xyz
      dof ry rz rx
   end
   begin
      id 12
      name LeftHand
      direction 0.000000 0.000000 0.000000
      length 0.000000
      axis 0.0 0.0 -90.0 xyz
      dof rx ry rz
   end
   begin
      id 13
      name LeftHand_dum1
      direction 0.000000 0.000000 0.000000
      length 0.000000
      axis 0.0 0.0 -90.0 xyz
   end
   begin
      id 14
      name LeftHand_dum2
      direction 1.000000 0.000000 0.000000
      length 3.937000
      axis 0.0 0.0 -90.0 xyz
   end
   begin
      id 15
      name LeftHandThumb1
      direction 0.000000 0.000000 1.000000
      length 3.937000
      axis 0.0 0.0 -90.0 xyz
      dof rx rz ry
   end
   begin
      id 16
      name RightShoulder
      direction -1.000000 0.000000 0.000000
      length 8.349299
      axis 0.0 0.0 90.0 xyz
      dof rx ry rz
   end
   begin
      id 17
      name RightArm
      direction -1.000000 0.000000 0.000000
      length 11.334839
      axis 0.0 0.0 90.0 xyz
      dof rx ry rz
   end
   begin
      id 18
      name RightForeArm
      direction -1.000000 0.000000 0.000000
      length 9.694182
      axis 0.0 0.0 90.0 xyz
      dof ry rz rx
   end
   begin
      id 19
      name RightHand
      direction 0.000000 0.000000 0.000000
      length 0.000000
      axis 0.0 0.0 90.0 xyz
      dof rx ry rz
   end
   begin
      id 20
      name RightHand_dum1
      direction 0.000000 0.000000 0.000000
      length 0.000000
      axis 0.0 0.0 90.0 xyz
   end
   begin
      id 21
      name RightHand_dum2
      direction -1.000000 0.000000 0.000000
      length 3.937000
      axis 0.0 0.0 90.0 xyz
   end
   begin
      id 22
      name RightHandThumb1
      direction 0.000000 0.000000 1.000000
      length 3.937000
      axis 0.0 0.0 90.0 xyz
      dof rx rz ry
   end
   begin
      id 23
      name LeftUpLeg
      direction 0.000000 -1.000000 0.000000
      length 16.757176
      axis 0.0 0.0 0.0 xyz
      dof rx ry rz
   end
   begin
      id 24
      name LeftLeg
      direction 0.000000 -1.000000 0.000000
      length 16.759153
      axis 0.0 0.0 0.0 xyz
      dof rx ry rz
   end
   begin
      id 25
      name LeftFoot
      direction 0.000000 -0.258819 0.965926
      length 5.841289
      axis 15.0 0.0 0.0 xyz
      dof rx ry rz
   end
   begin
      id 26
      name LeftToeBase
      direction 0.000000 0.000000 1.000000
      length 2.952750
      axis 0.0 0.0 0.0 xyz
      dof rx ry rz
   end
   begin
      id 27
      name RightUpLeg
      direction 0.000000 -1.000000 0.000000
      length 16.757176
      axis 0.0 0.0 0.0 xyz
      dof rx ry rz
   end
   begin
      id 28
      name RightLeg
      direction 0.000000 -1.000000 0.000000
      length 16.759153
      axis 0.0 0.0 0.0 xyz
      dof rx ry rz
   end
   begin
      id 29
      name RightFoot
      direction 0.000000 -0.258819 0.965926
      length 5.841289
      axis 15.0 0.0 0.0 xyz
      dof rx ry rz
   end
   begin
      id 30
      name RightToeBase
      direction 0.000000 0.000000 1.000000
      length 2.952750
      axis 0.0 0.0 0.0 xyz
      dof rx ry rz
   end
:hierarchy
   begin
      root Spine_dum LeftUpLeg_dum RightUpLeg_dum
      Spine_dum Spine
      LeftUpLeg_dum LeftUpLeg
      RightUpLeg_dum RightUpLeg
      Spine Spine_dum1 Spine_dum2 Spine_dum3
      Spine_dum1 Head
      Spine_dum2 LeftShoulder
      Spine_dum3 RightShoulder
      LeftShoulder LeftArm
      LeftArm LeftForeArm
      LeftForeArm LeftHand
      LeftHand LeftHand_dum1 LeftHand_dum2
      LeftHand_dum1 LeftHandThumb1
      RightShoulder RightArm
      RightArm RightForeArm
      RightForeArm RightHand
      RightHand RightHand_dum1 RightHand_dum2
      RightHand_dum1 RightHandThumb1
      LeftUpLeg LeftLeg
      LeftLeg LeftFoot
      LeftFoot LeftToeBase
      RightUpLeg RightLeg
      RightLeg RightFoot
      RightFoot RightToeBase
   end

# File created by Blade
# Date/Time:  Wed Jan 28 16:58:32 2015
# Frame Rate: 120.000 fps
#------------------------------------------------------
:FULLY-SPECIFIED
:DEGREES
2683
root 11.253851 37.084657 -19.115185 195.261420 27.209616 -147.870569
Spine 28.968719 -7.994629 15.948897
Head 18.703954 20.996238 36.302846
LeftShoulder -4.332980 2.188002 22.748575
LeftArm 51.471323 -7.905044 -67.341545
LeftForeArm 2.064504 0.000000 96.374719
LeftHand -7.920874 -0.000000 28.099919
LeftHandThumb1 -26.253704 0.000000 33.147579
RightShoulder -18.387496 -6.786257 -1.099838
RightArm 13.446500 -30.157416 70.498999
RightForeArm -7.662951 -0.000000 32.947869
RightHand -14.542528 0.000000 11.021929
RightHandThumb1 -24.326973 -0.000000 -32.862282
LeftUpLeg -0.029416 27.766893 19.526845
LeftLeg 4.163266 -0.000000 -0.000000
LeftFoot -13.891189 27.309766 -10.518491
LeftToeBase 8.406848 -0.000000 -0.000000
RightUpLeg -67.115909 3.374813 2.513841
RightLeg 118.337855 -0.000000 -0.000000
RightFoot 5.764333 -7.735756 10.285771
RightToeBase -4.292137 -0.000000 0.000000
2684
root 11.239452 37.075098 -19.104403 195.168294 27.269935 -148.090592
Spine 28.979769 -8.027199 15.851396
Head 18.448066 21.084222 36.100797
LeftShoulder -4.296517 2.175865 22.609643
LeftArm 51.789723 -7.493344 -67.283033
LeftForeArm 2.466748 0.000000 95.996993
LeftHand -7.933863 -0.000000 28.235173
LeftHandThumb1 -26.253704 0.000000 33.147579
RightShoulder -18.435028 -6.694928 -1.078863
RightArm 13.363986 -30.076347 70.523088
RightForeArm -7.557987 -0.000000 33.047911
RightHand -14.551353 -0.000000 10.958830
RightHandThumb1 -24.326973 -0.000000 -32.862282
LeftUpLeg -0.023432 27.542571 19.316800
LeftLeg 4.141285 -0.000000 -0.000000
LeftFoot -13.880699 27.334440 -10.553514
LeftToeBase 8.398965 -0.000000 -0.000000
RightUpLeg -66.954577 4.055213 2.795658
RightLeg 118.332093 -0.000000 -0.000000
RightFoot 5.694926 -7.658418 10.200411
RightToeBase -4.508370 -0.000000 0.000000
2685
root 11.230340 37.072649 -19.067834 195.231960 27.315900 -148.190030
Spine 28.866722 -8.069910 15.857478
Head 18.316114 21.186676 35.894792
LeftShoulder -4.253777 2.162377 22.466086
LeftArm 52.017950 -7.137084 -67.241012
LeftForeArm 2.911608 -0.000000 95.636168
LeftHand -7.887187 -0.000000 28.358549
LeftHandThumb1 -26.253704 0.000000 33.147579
RightShoulder -18.394365 -6.668696 -1.097656
RightArm 13.305166 -30.000884 70.571736
RightForeArm -7.459655 0.000000 33.135429
RightHand -14.544979 -0.000000 10.961629
RightHandThumb1 -24.326973 -0.000000 -32.862282
LeftUpLeg -0.192596 27.395255 19.187800
LeftLeg 4.193876 -0.000000 -0.000000
LeftFoot -13.866748 27.328853 -10.596932
LeftToeBase 8.381794 -0.000000 -0.000000
RightUpLeg -67.042529 5.097038 3.217572
RightLeg 118.339326 -0.000000 -0.000000
RightFoot 5.800997 -7.939493 10.393332
RightToeBase -4.562856 -0.000000 0.000000
2686
root 11.224504 37.064461 -19.045023 195.210862 27.355137 -148.349572
Spine 28.750605 -8.098209 15.797720
Head 18.240292 21.192194 35.778146
LeftShoulder -4.165671 2.192019 22.329357
LeftArm 52.255051 -6.821381 -67.201720
LeftForeArm 3.190390 0.000000 95.262824
LeftHand -7.752516 0.000000 28.250319
LeftHandThumb1 -26.253704 0.000000 33.147579
RightShoulder -18.398948 -6.731855 -1.091465
RightArm 13.349432 -29.979106 70.573002
RightForeArm -7.393571 -0.000000 33.150216
RightHand -14.551559 -0.000000 11.049699
RightHandThumb1 -24.326973 -0.000000 -32.862282
LeftUpLeg -0.257673 27.271307 19.034311
LeftLeg 4.193485 -0.000000 -0.000000
LeftFoot -13.853057 27.287458 -10.605493
LeftToeBase 8.365986 -0.000000 -0.000000
RightUpLeg -67.073618 5.811984 3.568312
RightLeg 118.387074 -0.000000 -0.000000
RightFoot 5.843265 -8.034741 10.340434
RightToeBase -4.827420 -0.000000 0.000000
2687
root 11.215609 37.049289 -19.034119 195.087623 27.429636 -148.644738
Spine 28.688857 -8.087479 15.569864
Head 18.127618 21.240526 35.701408
LeftShoulder -4.109553 2.236642 22.193644
LeftArm 52.570890 -6.502888 -67.136355
LeftForeArm 3.604826 -0.000000 94.857164
LeftHand -7.780743 -0.000000 28.244698
LeftHandThumb1 -26.253704 0.000000 33.147579
RightShoulder -18.435843 -6.761536 -1.017886
RightArm 13.371444 -29.988230 70.576655
RightForeArm -7.325909 -0.000000 33.149713
RightHand -14.559248 0.000000 11.085089
RightHandThumb1 -24.326973 -0.000000 -32.862282
LeftUpLeg -0.212302 27.188004 18.778402
LeftLeg 4.114783 -0.000000 -0.000000
LeftFoot -13.824547 27.156705 -10.584429
LeftToeBase 8.377296 -0.000000 -0.000000
RightUpLeg -67.101970 6.361712 3.777792
RightLeg 118.498358 -0.000000 -0.000000
RightFoot 5.822337 -8.088339 10.222497
RightToeBase -4.772930 -0.000000 0.000000
2688
root 11.204614 37.034224 -19.021906 194.960506 27.490093 -148.945928
Spine 28.644145 -8.149920 15.305611
Head 18.030705 21.360287 35.645617
LeftShoulder -4.117609 2.302437 22.064085
LeftArm 52.877907 -6.203892 -67.080602
LeftForeArm 3.939044 -0.000000 94.480637
LeftHand -7.790300 -0.000000 28.355880
LeftHandThumb1 -26.253704 0.000000 33.147579
RightShoulder -18.403480 -6.779013 -0.963601
RightArm 13.447481 -30.061521 70.541741
RightForeArm -7.218840 0.000000 33.093621
RightHand -14.563256 -0.000000 11.187377
RightHandThumb1 -24.326973 -0.000000 -32.862282
LeftUpLeg -0.145131 27.110489 18.524230
LeftLeg 3.989801 -0.000000 -0.000000
LeftFoot -13.758819 26.964382 -10.556592
LeftToeBase 8.360821 -0.000000 -0.000000
RightUpLeg -67.210650 6.916046 3.989223
RightLeg 118.649802 -0.000000 -0.000000
RightFoot 5.880550 -8.195238 10.012447
RightToeBase -4.962873 -0.000000 0.000000
2689
root 11.193179 37.018304 -19.008035 194.841265 27.519783 -149.279092
Spine 28.544778 -8.164625 15.046716
Head 17.900404 21.373687 35.578706
LeftShoulder -4.058262 2.348422 21.957162
LeftArm 53.153793 -5.945464 -67.072420
LeftForeArm 4.253710 -0.000000 94.112195
LeftHand -7.655310 -0.000000 28.323900
LeftHandThumb1 -26.253704 0.000000 33.147579
RightShoulder -18.437615 -6.784817 -0.898481
RightArm 13.484443 -30.159272 70.539174
RightForeArm -7.145044 -0.000000 33.007057
RightHand -14.493533 -0.000000 11.256501
RightHandThumb1 -24.326973 -0.000000 -32.862282
LeftUpLeg -0.116682 27.011332 18.226353
LeftLeg 3.845204 -0.000000 -0.000000
LeftFoot -13.672961 26.798868 -10.473172
LeftToeBase 8.397323 -0.000000 -0.000000
RightUpLeg -67.424664 7.400155 4.160241
RightLeg 118.839374 -0.000000 -0.000000
RightFoot 5.935106 -8.286069 9.927682
RightToeBase -4.862363 -0.000000 0.000000
